<svg xmlns="http://www.w3.org/2000/svg" xmlns:xlink="http://www.w3.org/1999/xlink" viewBox="0 0 140 45.11"><defs><style>.cls-1{fill:url(#linear-gradient);}.cls-2{fill:#fff;opacity:0.7;}.cls-3{fill:#41529f;}</style><linearGradient id="linear-gradient" x1="36.46" y1="39.8" x2="-5.89" y2="-2.55" gradientUnits="userSpaceOnUse"><stop offset="0" stop-color="#41529f"/><stop offset="1" stop-color="#7a59a1"/></linearGradient></defs><g id="레이어_2" data-name="레이어 2"><g id="Layer_1" data-name="Layer 1"><path class="cls-1" d="M28.24,0H7.58A7.58,7.58,0,0,0,0,7.58v30a7.58,7.58,0,0,0,7.58,7.58H19.37a10.93,10.93,0,0,0,8.8-4.26c2.19-3.16,2-6.9.47-10.27a21.13,21.13,0,0,0-4.87-6.79.28.28,0,0,0-.4,0,6.48,6.48,0,0,1-5.05,1.91,2.33,2.33,0,0,0-1.81.83l-2.19,2.54a1.71,1.71,0,0,1-1.05.57L10.8,30a1.68,1.68,0,0,1-1.66-.83l-.63-1.1a1.68,1.68,0,0,1,0-1.6,70.2,70.2,0,0,1,8.45-12.84l2-3.32a.15.15,0,0,1,.2,0c.34.23,1.22,1.08.44,3.17a16.51,16.51,0,0,1,3.38-.35c9.32-.23,14.92,7.07,15.89,8.43a10.43,10.43,0,0,0,3.29-7.62A13.86,13.86,0,0,0,28.24,0ZM15.43,13.47l-.8,1-.8,1a.22.22,0,0,1-.33,0L7.26,9.24a.44.44,0,0,1,.55-.69l7.56,4.6A.22.22,0,0,1,15.43,13.47Z"/><path class="cls-2" d="M28.41,13,23,13.05h.11c9.19-.11,14.71,7.06,15.68,8.43.17-.17.35-.34.51-.52l.09-.1a8.3,8.3,0,0,0,.54-.64l.06-.09c.18-.23.34-.47.5-.71l0,0a11.34,11.34,0,0,0,.84-1.67h0C39,15.59,34.89,13.14,28.41,13Z"/><path class="cls-3" d="M50.8,28h3V39.93h5.4v2.65H50.8Z"/><path class="cls-3" d="M61.33,28h3V39.93h5.4v2.65H61.33Z"/><path class="cls-3" d="M71.86,28H75a11.12,11.12,0,0,1,3.7.43,3.78,3.78,0,0,1,1.78,1.43,4.15,4.15,0,0,1,.67,2.37,3.88,3.88,0,0,1-.74,2.41,4.55,4.55,0,0,1-2.24,1.46l3.72,6.49H78.66L75.12,36.4h-.27v6.18h-3Zm3,5.7h.94a3.9,3.9,0,0,0,2-.35,1.26,1.26,0,0,0,.54-1.15,1.31,1.31,0,0,0-.27-.83,1.42,1.42,0,0,0-.71-.51,6,6,0,0,0-1.64-.15h-.82Z"/><path class="cls-3" d="M99,28h3v9.43a4.69,4.69,0,0,0,.23,1.73,1.77,1.77,0,0,0,.76.8,2.45,2.45,0,0,0,1.28.31,2.69,2.69,0,0,0,1.36-.34,1.86,1.86,0,0,0,.79-.86,6,6,0,0,0,.22-2V28h3v8.7a11.62,11.62,0,0,1-.27,3.05,4.32,4.32,0,0,1-1,1.65,4.62,4.62,0,0,1-1.74,1.17,6.12,6.12,0,0,1-2.28.38,5.85,5.85,0,0,1-3-.73,4.31,4.31,0,0,1-1.8-1.82,8.88,8.88,0,0,1-.55-3.7Z"/><path class="cls-3" d="M112.58,28h2.87l6.53,9.6V28h3V42.58h-2.88L115.57,33v9.57h-3Z"/><path class="cls-3" d="M127.75,28h3.55a11.31,11.31,0,0,1,4.88.79,6.4,6.4,0,0,1,2.74,2.56,8.43,8.43,0,0,1,.48,7.25,6.37,6.37,0,0,1-1.67,2.34,6,6,0,0,1-2.3,1.29,15.5,15.5,0,0,1-4.08.36h-3.6Zm3,2.68v9.2h1.39a6.35,6.35,0,0,0,2.77-.44A3.39,3.39,0,0,0,136.39,38a5.08,5.08,0,0,0,.59-2.54,4.63,4.63,0,0,0-1.4-3.6,5.3,5.3,0,0,0-3.84-1.15Z"/><path class="cls-3" d="M49,42.58H46.33l-1.08-3.16H39.06L38,42.58H35.28l5-14.59h3.85ZM42.13,30.35l-2.3,6.79h4.64Z"/><path class="cls-3" d="M90,30.75c3.35,0,3.61,3.61,3.61,4.72s-.26,4.71-3.61,4.71-3.61-3.61-3.61-4.71.26-4.72,3.61-4.72M90,28c-4.32,0-6.59,3.35-6.59,7.48s2.27,7.47,6.59,7.47,6.59-3.35,6.59-7.47S94.28,28,90,28Z"/></g></g></svg>