<svg xmlns="http://www.w3.org/2000/svg" width="80" height="80" viewBox="0 0 80 80">
    <defs>
        <clipPath id="clip-path">
            <path id="사각형_224" data-name="사각형 224" style="fill:none" d="M0 0h80v80H0z"/>
        </clipPath>
        <style>
            .cls-2{fill:#3273eb}
        </style>
    </defs>
    <g id="그룹_432" data-name="그룹 432">
        <path id="패스_466" data-name="패스 466" class="cls-2" d="M2.437 54.479V33.9h1.942l13.744 18.017V33.9h1.367v20.58h-1.223L3.8 35.6v18.879z" transform="translate(-.331 -4.601)"/>
        <path id="패스_467" data-name="패스 467" class="cls-2" d="M41.014 33.9v1.3h-12v8.2h11.511v1.3H29.012v8.491h12.2v1.3H27.5V33.9z" transform="translate(-3.826 -4.601)"/>
        <path id="패스_468" data-name="패스 468" class="cls-2" d="m65.338 48.45.28-.571L62.785 33.9h-1.51L51.7 53.025l.32-19.127h-1.566v20.58h2.143l9.442-18.795 2.681 14.07z" transform="translate(-7.022 -4.601)"/>
        <path id="패스_469" data-name="패스 469" class="cls-2" d="M69.988 54.479h-1.655L78.766 33.9h1.656z" transform="translate(-9.532 -4.601)"/>
        <g id="그룹_431" data-name="그룹 431">
            <g id="그룹_430" data-name="그룹 430" style="clip-path:url(#clip-path)">
                <path id="패스_470" data-name="패스 470" class="cls-2" d="M2.436 88.588V68h8.751q5.854 0 5.854 4.793 0 3.512-4.246 5.023 4.506.764 4.5 4.822 0 5.944-6.413 5.944zm8.293-1.3q4.964 0 4.964-4.606 0-4.073-6.213-4.074H8.333v-1.017q7.173-.647 7.173-4.693 0-3.6-4.419-3.6H3.944v17.994z" transform="translate(-.338 -9.232)"/>
                <path id="패스_471" data-name="패스 471" class="cls-2" d="M23.754 78.3q0-10.463 10.3-10.464Q44.2 67.839 44.2 78.3q0 10.407-10.143 10.406-10.3 0-10.3-10.406m10.3 9.111q8.493 0 8.493-9.2 0-9.081-8.493-9.081-8.651 0-8.651 9.081 0 9.2 8.651 9.2" transform="translate(-3.291 -9.209)"/>
                <path id="패스_472" data-name="패스 472" class="cls-2" d="M51.983 88.588V68h8.465q5.565 0 5.567 4.937 0 4.274-6.04 6.059l6.925 9.592h-2.063l-6.815-9.543v-1.023q6.312-.935 6.313-4.965 0-3.714-4.132-3.714h-6.714v19.245z" transform="translate(-7.203 -9.232)"/>
                <path id="패스_473" data-name="패스 473" class="cls-2" d="M72.552 88.588V68.005h1.937l13.7 18.02v-18.02h1.363v20.583h-1.22L73.914 69.7v18.888z" transform="translate(-10.053 -9.232)"/>
                <path id="패스_474" data-name="패스 474" class="cls-2" d="M16.464 19.964a19.3 19.3 0 0 1-5.727.862Q0 20.826 0 10.125 0 0 10.737 0a19.3 19.3 0 0 1 5.727.862v1.293a18.388 18.388 0 0 0-5.44-.862q-9.524 0-9.524 8.832 0 9.408 9.521 9.408a18.416 18.416 0 0 0 5.44-.862z"/>
                <path id="패스_475" data-name="패스 475" class="cls-2" d="M23.349 10.442Q23.349 0 33.629 0 43.75 0 43.751 10.442q0 10.385-10.122 10.384-10.279 0-10.28-10.384m10.28 9.092q8.475 0 8.476-9.178 0-9.063-8.476-9.062Q25 1.293 25 10.355q0 9.178 8.633 9.178" transform="translate(-3.235)"/>
                <path id="패스_476" data-name="패스 476" class="cls-2" d="M51.519 20.7V.166h7.3q10.021 0 10.021 9.71 0 10.829-10.165 10.829zm7.158-1.292q8.518 0 8.519-9.537 0-8.417-8.519-8.417h-5.655v17.959z" transform="translate(-7.138 -.022)"/>
                <path id="패스_477" data-name="패스 477" class="cls-2" d="M89.392.166v1.293h-11.94v8.187h11.454v1.292H77.452v8.475h12.14v1.293H75.949V.166z" transform="translate(-10.523 -.022)"/>
            </g>
        </g>
    </g>
</svg>
