<svg xmlns="http://www.w3.org/2000/svg" width="258" height="21.647" viewBox="0 0 258 21.647">
    <defs>
        <style>
            .cls-1{fill:#1a1f40}
        </style>
    </defs>
    <g id="레이어_2" transform="translate(.004)">
        <g id="레이어_1" transform="translate(-.004)">
            <path id="패스_1" d="M347.1 11.549L352.265 0h-4.98l-4.14 9.248L342.184 0h-8.314l8.976 20.547z" class="cls-1" transform="translate(-294.199)"/>
            <path id="패스_2" d="M503.174 0h-3.314v19.93z" class="cls-1" transform="translate(-440.481)"/>
            <path id="패스_3" d="M122.249 0l-3.119 6.716L120.209 0h-6.916v16.006a6.231 6.231 0 0 1-1.341 4.376 4.377 4.377 0 0 1-1.572 1.1 8.919 8.919 0 0 0 1.7-.31v.475h3.313L124.271 0z" class="cls-1" transform="translate(-97.319)"/>
            <path id="패스_4" d="M4.3 17.589v-2.674h.571v2.674c0 .628.277 3.767 5.744 3.767A4.619 4.619 0 0 0 14.206 20a5.792 5.792 0 0 0 1.2-3.951V0h-1.459l-2.19 13.1s-.306 2.04-1.485 2.019c-1.245-.023-1.7-.658-1.725-1.958-.022-1.168-.012-1.89-.012-1.89L0 12.65s-.118 5.9 3.48 7.77a12.016 12.016 0 0 0 4.1 1.092 4.234 4.234 0 0 1-3.28-3.923z" class="cls-1" transform="translate(.004)"/>
            <path id="패스_5" d="M437.575 1.51l-6.147 13.751-1.419 7.713h7.691V1.537z" class="cls-1" transform="translate(-378.925 -1.331)"/>
            <path id="패스_6" d="M192 11.17v6.368h4.178L191.089 4.47l-5.379 13.068h3.932z" class="cls-1" transform="translate(-163.736 -3.941)"/>
            <path id="패스_7" d="M332.19 9.607v20.482h3.11l1.445-10.329L338 30.089h2.849l.2-.435-8.732-20.074z" class="cls-1" transform="translate(-292.885 -8.446)"/>
            <path id="패스_8" d="M175.1 13.944L173.273 0h-6.2l7.165 18.485-.181 1.117-2.084-5.377h-10.921l-3.042 7.418h3.984l.99-2.609h5.01v2.609h10.054V0z" class="cls-1" transform="translate(-139.314)"/>
            <path id="패스_9" d="M600.164 64.553v.828h-6.354V55.92h6.234v.828h-5.3v3.408h4.623v.787h-4.623v3.61z" class="cls-1" transform="translate(-523.267 -49.257)"/>
            <path id="패스_10" d="M717.462 57.639v7.739h-.932V55.92h.773l6.207 7.886v-7.877h.932v9.445h-.866z" class="cls-1" transform="translate(-631.406 -49.257)"/>
            <path id="패스_11" d="M857.163 56.728h-3.371v8.637h-.929v-8.637h-3.373V55.9h7.673z" class="cls-1" transform="translate(-748.571 -49.24)"/>
            <path id="패스_12" d="M986.774 64.553v.828h-6.354V55.92h6.234v.828h-5.3v3.408h4.623v.787h-4.623v3.61z" class="cls-1" transform="translate(-863.95 -49.257)"/>
            <path id="패스_13" d="M1103.14 65.377v-9.458h4a2.485 2.485 0 0 1 1.119.253 2.879 2.879 0 0 1 .885.686 3.263 3.263 0 0 1 .592.958 2.929 2.929 0 0 1 .206 1.073 3.192 3.192 0 0 1-.259 1.279 2.793 2.793 0 0 1-.732 1.012 2.406 2.406 0 0 1-1.113.547l2.319 3.65h-1.057l-2.224-3.49h-2.8v3.49zm.93-4.316h3.09a1.579 1.579 0 0 0 .971-.306 2.028 2.028 0 0 0 .64-.806 2.546 2.546 0 0 0 .226-1.065 2.235 2.235 0 0 0-.952-1.845 1.657 1.657 0 0 0-.966-.3h-3.01z" class="cls-1" transform="translate(-972.09 -49.256)"/>
            <path id="패스_14" d="M1229.592 56.728h-3.37v8.637h-.932v-8.637h-3.37V55.9h7.672z" class="cls-1" transform="translate(-1076.757 -49.24)"/>
            <path id="패스_15" d="M1340.508 55.92h.786l3.931 9.459h-.987l-1.183-2.958h-4.321l-1.183 2.958h-1zm2.248 5.768l-1.868-4.676-1.87 4.676z" class="cls-1" transform="translate(-1177.767 -49.257)"/>
            <path id="패스_16" d="M1475.45 65.379V55.92h.932v9.459z" class="cls-1" transform="translate(-1300.187 -49.257)"/>
            <path id="패스_17" d="M1558.462 57.639v7.739h-.932V55.92h.773l6.207 7.886v-7.877h.932v9.445h-.866z" class="cls-1" transform="translate(-1372.497 -49.257)"/>
            <path id="패스_18" d="M1706.969 65.379v-7.7l-3.424 5.981h-.592l-3.431-5.981v7.7h-.932V55.92h.96l3.689 6.474 3.718-6.474h.947v9.459z" class="cls-1" transform="translate(-1496.794 -49.257)"/>
            <path id="패스_19" d="M1857.834 64.553v.828h-6.354V55.92h6.234v.828h-5.3v3.408h4.623v.787h-4.623v3.61z" class="cls-1" transform="translate(-1631.404 -49.257)"/>
            <path id="패스_20" d="M1975.132 57.639v7.739h-.932V55.92h.773l6.207 7.886v-7.877h.932v9.445h-.865z" class="cls-1" transform="translate(-1739.604 -49.257)"/>
            <path id="패스_21" d="M2114.823 56.728h-3.371v8.637h-.932v-8.637h-3.37V55.9h7.673z" class="cls-1" transform="translate(-1856.823 -49.24)"/>
        </g>
    </g>
</svg>
