<svg xmlns="http://www.w3.org/2000/svg" width="147.848" height="26.461" viewBox="0 0 147.848 26.461">
  <defs>
    <style>
      .cls-1 {
        fill: #003d66;
      }
    </style>
  </defs>
  <g id="그룹_3" data-name="그룹 3" transform="translate(-290.943 -396.283)">
    <g id="그룹_1" data-name="그룹 1" transform="translate(290.943 396.283)">
      <path id="패스_1" data-name="패스 1" class="cls-1" d="M293.381,410.865a1.431,1.431,0,0,0-2.438,1.017v16.787h5.191V414.188a1.432,1.432,0,0,0-.424-1.017Z" transform="translate(-290.943 -402.208)"/>
      <path id="패스_2" data-name="패스 2" class="cls-1" d="M323.257,410.865l-2.329,2.306a1.432,1.432,0,0,0-.424,1.017v14.481h5.191V411.882A1.431,1.431,0,0,0,323.257,410.865Z" transform="translate(-303.307 -402.208)"/>
      <path id="패스_3" data-name="패스 3" class="cls-1" d="M308.249,422.763a2.6,2.6,0,0,0-2.6,2.6v8.461h5.191v-8.461A2.6,2.6,0,0,0,308.249,422.763Z" transform="translate(-297.096 -407.358)"/>
      <path id="패스_4" data-name="패스 4" class="cls-1" d="M303.531,409.928a1.459,1.459,0,0,0,2.048,0l9.551-9.45A2.458,2.458,0,1,0,311.654,397l-6.429,6.415a.98.98,0,0,1-1.341,0l-2.74-2.725a2.436,2.436,0,0,0-3.462,0,2.445,2.445,0,0,0,0,3.462Zm9.875-12.632a1.451,1.451,0,1,1-1.443,1.458A1.449,1.449,0,0,1,313.407,397.3Z" transform="translate(-293.462 -396.282)"/>
    </g>
    <g id="그룹_2" data-name="그룹 2" transform="translate(323.476 407.398)">
      <path id="패스_5" data-name="패스 5" class="cls-1" d="M395.864,416.463l-3.714,4.065a.385.385,0,0,1-.616,0l-3.734-4.065a1.433,1.433,0,0,1-.23-.286c-.052-.088-.093-.161-.123-.219h-4.9a1.07,1.07,0,0,0,.121.219,2.227,2.227,0,0,0,.252.286l6.746,7.426v7.084h4.02v-6.82l6.966-7.69a2.256,2.256,0,0,0,.251-.286c.052-.073.1-.146.144-.219h-4.811A1.66,1.66,0,0,1,395.864,416.463Z" transform="translate(-361.792 -415.628)"/>
      <path id="패스_6" data-name="패스 6" class="cls-1" d="M415.78,417.957v10.951a1.836,1.836,0,0,0,2.087,2.066H431.4V427.5H420.108c-.233,0-.351-.132-.351-.4V425.23h11.579V421.8H419.757v-1.977c0-.249.118-.374.351-.374H431.4v-3.493H417.889Q415.781,415.958,415.78,417.957Z" transform="translate(-375.692 -415.628)"/>
      <path id="패스_7" data-name="패스 7" class="cls-1" d="M464.629,430.4c-.041-.1-.081-.209-.145-.337l-5.358-11.9a4.762,4.762,0,0,0-1.681-2.088,5.346,5.346,0,0,0-5.241,0,4.823,4.823,0,0,0-1.67,2.088l-5.317,11.9c-.058.128-.1.233-.145.337s-.064.215-.093.332h4.59a1.166,1.166,0,0,1,.07-.262c.029-.087.052-.18.087-.268l.768-1.8h8.784l.8,1.821c.029.07.052.151.081.233a1.368,1.368,0,0,1,.087.273h4.485C464.7,430.62,464.664,430.509,464.629,430.4ZM451.941,425.1l2.263-5.381a.709.709,0,0,1,.285-.361.775.775,0,0,1,.372-.1.7.7,0,0,1,.4.111.751.751,0,0,1,.285.349l2.286,5.381Z" transform="translate(-387.904 -415.393)"/>
      <path id="패스_8" data-name="패스 8" class="cls-1" d="M498.168,430.313c-.006-.2-.012-.588-.012-.908v-2.973a4.458,4.458,0,0,0-.337-1.949,2.756,2.756,0,0,0-1.088-1.123,2.987,2.987,0,0,0,1.1-1.373,4.762,4.762,0,0,0,.308-1.7,4.042,4.042,0,0,0-.32-1.594,4.375,4.375,0,0,0-.873-1.326,4.48,4.48,0,0,0-1.512-1.024,5.857,5.857,0,0,0-2.286-.384H482.6c-.657,0-.983.308-.983.925v14.055h3.973v-5.4h6.923a2,2,0,0,1,1.251.308,1.234,1.234,0,0,1,.378,1.012v2.961a9.965,9.965,0,0,0,.058,1.117h4.026A5.6,5.6,0,0,1,498.168,430.313Zm-4.427-8.644a1.347,1.347,0,0,1-.436.349,1.55,1.55,0,0,1-.686.134h-7.027V420a.33.33,0,0,1,.326-.332h6.7a1.367,1.367,0,0,1,1.082.4,1.127,1.127,0,0,1,.326.826A1.191,1.191,0,0,1,493.741,421.669Z" transform="translate(-403.23 -415.627)"/>
      <path id="패스_9" data-name="패스 9" class="cls-1" d="M527.922,415.72v9.6c0,.261-.1.39-.3.39a.491.491,0,0,1-.2-.031.4.4,0,0,1-.18-.143l-7.248-8.68a4.389,4.389,0,0,0-1.426-1.141,4.342,4.342,0,0,0-1.779-.329,4.954,4.954,0,0,0-1.389.186,2.8,2.8,0,0,0-1.1.607,2.716,2.716,0,0,0-.713,1.073,4.52,4.52,0,0,0-.254,1.606v11.713h3.912V420.513a.412.412,0,0,1,.112-.31.357.357,0,0,1,.261-.112.5.5,0,0,1,.353.2l3.237,3.745,4.917,5.679.849.986h4.836V415.72Z" transform="translate(-416.495 -415.391)"/>
      <path id="패스_10" data-name="패스 10" class="cls-1" d="M366.932,419.917a5.629,5.629,0,0,0-.308-2,3.543,3.543,0,0,0-.9-1.338,3.851,3.851,0,0,0-1.012-.646,2.96,2.96,0,0,0-1.257-.256,2.723,2.723,0,0,0-2.019.768,3.928,3.928,0,0,0-.454.564L357.3,421.8a.478.478,0,0,1-.791,0l-3.688-4.788a3.93,3.93,0,0,0-.454-.564,2.723,2.723,0,0,0-2.019-.768,2.96,2.96,0,0,0-1.257.256,3.853,3.853,0,0,0-1.012.646,3.543,3.543,0,0,0-.9,1.338,5.629,5.629,0,0,0-.308,2h-.006v10.937h3.7v-9.412a.383.383,0,0,1,.681-.244l3.671,4.561c.017.023.041.047.058.07l.023.023a2.438,2.438,0,0,0,3.8,0l.023-.023c.017-.023.041-.047.058-.07l3.671-4.561a.383.383,0,0,1,.681.244v9.412h3.7V419.917Z" transform="translate(-346.868 -415.51)"/>
    </g>
  </g>
</svg>
