<svg xmlns="http://www.w3.org/2000/svg" width="111" height="23.907" viewBox="0 0 111 23.907">
    <defs>
        <style>
            .cls-1{fill:#0d4476}
        </style>
    </defs>
    <g id="그룹_63" transform="translate(-1028.35 -65.353)">
        <g id="레이어_2" transform="translate(1028.35 65.353)">
            <g id="레이어_1-2">
                <path id="패스_79" d="M11.913.956l-.234 2.587a10.715 10.715 0 0 0-4.808-1.066c-2.3 0-3.817.793-3.817 2.508C3.054 6.827 4.5 7.1 5.9 7.518l2.587.763c2.6.767 4.278 1.951 4.278 4.561 0 3.041-2.583 5.311-6.351 5.311a15.64 15.64 0 0 1-6.394-1.22l.234-2.5A16.191 16.191 0 0 0 6.1 15.65c2.119 0 3.729-.912 3.729-2.6 0-1.415-.754-1.974-2.468-2.468l-2.83-.793c-2.1-.579-4.4-1.728-4.4-4.456C.132 2.111 2.482 0 6.549 0a14.06 14.06 0 0 1 5.364.956z" class="cls-1" transform="translate(-.02 .007)"/>
                <path id="패스_80" d="M142.351 24.435H46.72V.79h2.741v21.163h92.89z" class="cls-1" transform="translate(-31.352 -.528)"/>
                <path id="패스_81" d="M75.687 0a8.973 8.973 0 0 1 9.343 9.172c0 5.328-3.975 8.987-9.343 8.987-5.265 0-9.247-3.7-9.247-8.987A8.974 8.974 0 0 1 75.687 0zm0 15.575a6.109 6.109 0 0 0 6.483-6.43 6.425 6.425 0 1 0-12.847 0 6.079 6.079 0 0 0 6.364 6.43z" class="cls-1" transform="translate(-44.582 .002)"/>
                <path id="패스_82" d="M139.019 13.035h-4.861v5.4h-2.728V.79h7.99c3.314 0 6.157 1.935 6.157 6.157a5.791 5.791 0 0 1-3.715 5.637l4.834 5.835h-3.34zm-4.861-9.764v7.3h4.755a3.565 3.565 0 0 0 3.821-3.6 3.519 3.519 0 0 0-3.821-3.7z" class="cls-1" transform="translate(-88.185 -.528)"/>
                <path id="패스_83" d="M192.14.79c5.726 0 8.763 3.571 8.763 8.833s-3.037 8.81-8.763 8.81h-7.47V.79zm5.95 8.833c0-3.949-1.807-6.378-6.355-6.378h-4.324v12.719h4.337c4.552 0 6.342-2.364 6.342-6.341z" class="cls-1" transform="translate(-123.905 -.528)"/>
                <path id="패스_84" d="M255.8 18.432h-13.08V.79h12.808v2.481h-10.083v4.858h8.721v2.481h-8.721v5.341H255.8z" class="cls-1" transform="translate(-162.852 -.528)"/>
                <path id="패스_85" d="M298.529 13.035h-4.861v5.4h-2.728V.79h7.99c3.311 0 6.157 1.935 6.157 6.157a5.791 5.791 0 0 1-3.715 5.637l4.831 5.835h-3.337zm-4.861-9.764v7.3h4.755a3.564 3.564 0 0 0 3.817-3.6 3.518 3.518 0 0 0-3.817-3.7z" class="cls-1" transform="translate(-195.203 -.528)"/>
            </g>
        </g>
    </g>
</svg>
